<svg  viewBox="0 0 12 13" fill="none" xmlns="http://www.w3.org/2000/svg">
<path d="M2.5 2.97884C2.5 2.47603 2.68437 1.99382 3.01256 1.63828C3.34075 1.28275 3.78587 1.08301 4.25 1.08301H6V4.87467H4.25C3.78587 4.87467 3.34075 4.67494 3.01256 4.3194C2.68437 3.96386 2.5 3.48165 2.5 2.97884Z" stroke="black" stroke-linecap="round" stroke-linejoin="round"/>
<path d="M6 1.08301H7.75C7.97981 1.08301 8.20738 1.13204 8.4197 1.22732C8.63202 1.32259 8.82493 1.46224 8.98744 1.63828C9.14994 1.81433 9.27884 2.02332 9.36679 2.25334C9.45473 2.48335 9.5 2.72988 9.5 2.97884C9.5 3.22781 9.45473 3.47433 9.36679 3.70435C9.27884 3.93436 9.14994 4.14335 8.98744 4.3194C8.82493 4.49544 8.63202 4.63509 8.4197 4.73036C8.20738 4.82564 7.97981 4.87468 7.75 4.87468H6V1.08301Z" stroke="black" stroke-linecap="round" stroke-linejoin="round"/>
<path d="M6 6.77083C6 6.52187 6.04526 6.27534 6.13321 6.04533C6.22116 5.81532 6.35006 5.60632 6.51256 5.43028C6.67507 5.25423 6.86798 5.11459 7.0803 5.01931C7.29262 4.92404 7.52019 4.875 7.75 4.875C7.97981 4.875 8.20738 4.92404 8.4197 5.01931C8.63202 5.11459 8.82493 5.25423 8.98744 5.43028C9.14994 5.60632 9.27884 5.81532 9.36679 6.04533C9.45473 6.27534 9.5 6.52187 9.5 6.77083C9.5 7.0198 9.45473 7.26632 9.36679 7.49634C9.27884 7.72635 9.14994 7.93535 8.98744 8.11139C8.82493 8.28743 8.63202 8.42708 8.4197 8.52236C8.20738 8.61763 7.97981 8.66667 7.75 8.66667C7.52019 8.66667 7.29262 8.61763 7.0803 8.52236C6.86798 8.42708 6.67507 8.28743 6.51256 8.11139C6.35006 7.93535 6.22116 7.72635 6.13321 7.49634C6.04526 7.26632 6 7.0198 6 6.77083Z" stroke="black" stroke-linecap="round" stroke-linejoin="round"/>
<path d="M2.5 10.5628C2.5 10.06 2.68437 9.57781 3.01256 9.22227C3.34075 8.86673 3.78587 8.66699 4.25 8.66699H6V10.5628C6 11.0656 5.81563 11.5478 5.48744 11.9034C5.15925 12.2589 4.71413 12.4587 4.25 12.4587C3.78587 12.4587 3.34075 12.2589 3.01256 11.9034C2.68437 11.5478 2.5 11.0656 2.5 10.5628Z" stroke="black" stroke-linecap="round" stroke-linejoin="round"/>
<path d="M2.5 6.77083C2.5 6.26803 2.68437 5.78581 3.01256 5.43028C3.34075 5.07474 3.78587 4.875 4.25 4.875H6V8.66667H4.25C3.78587 8.66667 3.34075 8.46693 3.01256 8.11139C2.68437 7.75585 2.5 7.27364 2.5 6.77083Z" stroke="black" stroke-linecap="round" stroke-linejoin="round"/>
</svg>
